<?xml version="1.0" standalone="no"?>
<!DOCTYPE svg PUBLIC "-//W3C//DTD SVG 20010904//EN"
 "http://www.w3.org/TR/2001/REC-SVG-20010904/DTD/svg10.dtd">
<svg version="1.0" xmlns="http://www.w3.org/2000/svg"
 width="910.000000pt" height="910.000000pt" viewBox="0 0 910.000000 910.000000"
 preserveAspectRatio="xMidYMid meet">
<metadata>
Created by potrace 1.14, written by Peter Selinger 2001-2017
</metadata>
<g transform="translate(0.000000,910.000000) scale(0.100000,-0.100000)"
fill="#000000" stroke="none">
<path d="M4310 7310 c-25 -4 -63 -10 -85 -13 -197 -29 -440 -95 -585 -159 -14
-7 -28 -12 -32 -12 -3 -1 -10 -4 -14 -8 -4 -5 -16 -8 -26 -8 -10 0 -18 -3 -18
-8 0 -4 -15 -13 -32 -21 -78 -32 -291 -150 -308 -170 -3 -3 -17 -12 -32 -20
-16 -8 -28 -18 -28 -23 0 -4 -7 -8 -15 -8 -8 0 -15 -5 -15 -11 0 -5 -4 -7 -10
-4 -5 3 -10 -1 -10 -9 0 -9 -6 -16 -12 -16 -7 0 -26 -11 -43 -25 -154 -131
-254 -224 -297 -278 l-31 -38 64 33 c70 36 93 39 154 18 22 -8 42 -15 45 -15
3 0 31 -11 62 -23 32 -12 70 -23 85 -24 32 -2 75 10 84 24 8 12 65 14 152 4
95 -10 124 -2 133 37 4 18 7 37 6 44 -4 18 30 32 54 23 11 -5 27 -22 34 -40
13 -31 13 -31 78 -28 45 2 67 -1 70 -10 2 -6 10 -12 17 -12 22 0 25 -27 5 -45
-18 -17 -45 -19 -155 -11 -47 3 -52 1 -92 -41 -24 -24 -43 -49 -43 -55 0 -6
-3 -8 -6 -5 -4 3 -16 1 -27 -5 -11 -6 -48 -17 -81 -25 -87 -20 -106 -35 -106
-82 0 -58 24 -81 89 -86 65 -6 81 -23 79 -84 -2 -50 17 -71 65 -71 42 0 87 49
139 150 31 62 80 130 101 142 26 15 96 19 118 7 9 -4 22 -22 29 -39 16 -39 28
-38 66 6 l30 37 28 -28 c26 -26 27 -32 23 -96 -5 -77 -1 -84 57 -93 65 -10 70
-17 36 -54 -16 -18 -33 -32 -37 -32 -5 0 -14 -5 -21 -12 -14 -14 -26 -16 -182
-18 -136 -2 -182 -16 -173 -51 6 -20 19 -26 78 -33 59 -8 128 -30 132 -42 2
-6 -12 -28 -32 -49 -43 -44 -51 -44 -187 -1 -43 13 -49 13 -85 -5 -61 -31
-122 -91 -223 -220 -37 -47 -121 -133 -182 -187 -21 -17 -45 -46 -54 -64 -16
-31 -16 -32 17 -59 l33 -27 -34 -31 c-40 -36 -51 -38 -73 -13 -14 16 -43 99
-39 115 1 4 -3 7 -9 7 -5 0 -8 4 -5 9 3 5 -2 19 -12 31 -22 28 -83 31 -110 7
-22 -20 -48 -26 -130 -31 -76 -5 -86 -10 -110 -59 -33 -67 -43 -112 -41 -177
2 -56 6 -64 41 -101 32 -33 43 -38 66 -33 15 4 34 13 42 20 23 20 98 44 123
40 24 -4 24 -9 5 -73 -12 -42 -11 -43 20 -74 17 -17 37 -49 44 -71 17 -59 78
-120 121 -123 88 -6 79 -38 -16 -53 -38 -6 -57 -6 -57 1 0 6 -3 7 -6 4 -11
-10 -59 23 -90 62 -53 66 -124 131 -152 137 -15 4 -29 11 -32 15 -3 5 -15 10
-25 12 -11 2 -31 7 -45 10 -14 3 -63 8 -108 11 -100 5 -117 17 -168 118 -30
60 -45 120 -59 238 -6 54 -13 82 -31 122 -14 30 -21 36 -43 34 -14 -1 -25 -7
-24 -12 1 -5 4 -28 7 -49 4 -22 9 -54 12 -72 5 -28 2 -33 -24 -47 -18 -9 -49
-14 -79 -13 -49 3 -50 3 -51 -27 0 -17 -5 -62 -10 -100 -5 -38 -8 -86 -7 -107
1 -22 -1 -39 -4 -39 -11 0 -1 -282 14 -388 3 -26 8 -61 10 -79 l4 -32 -47 5
c-26 2 -101 7 -167 10 -66 3 -122 8 -125 11 -2 2 10 45 28 96 18 51 35 100 37
110 2 9 7 22 11 29 4 6 25 62 46 122 21 61 41 118 45 126 8 19 8 19 18 55 4
17 17 50 27 75 11 25 21 52 23 60 2 8 13 42 24 74 31 89 26 120 -20 112 -14
-2 -420 -204 -457 -227 -12 -8 -45 -79 -87 -188 -37 -97 -73 -189 -80 -206 -7
-16 -23 -57 -35 -90 -13 -33 -29 -73 -36 -90 -10 -26 -58 -149 -160 -412 -13
-34 -24 -66 -24 -71 0 -22 34 -34 102 -38 155 -8 373 -22 373 -25 0 -1 16 -3
35 -4 84 -6 208 -19 265 -29 22 -3 67 -9 99 -12 33 -3 63 -7 67 -10 4 -2 31
-6 60 -9 28 -2 59 -7 68 -9 9 -3 36 -8 60 -11 23 -3 46 -7 50 -10 4 -2 30 -7
57 -11 27 -3 52 -8 56 -10 3 -2 30 -9 60 -15 29 -6 62 -12 73 -15 16 -3 102
-27 215 -59 8 -2 48 -16 89 -30 68 -24 96 -35 201 -83 47 -21 238 -141 246
-154 4 -7 0 -7 -12 0 -17 9 -146 47 -192 57 -9 2 -62 15 -117 29 -55 15 -109
28 -120 31 -11 2 -59 13 -108 23 -48 11 -90 21 -92 21 -3 1 -6 1 -7 2 -2 0
-12 2 -23 4 -11 1 -51 8 -90 15 -38 7 -80 14 -92 15 -13 2 -42 6 -65 10 -22 4
-55 9 -72 11 -17 2 -46 6 -64 8 -72 11 -109 16 -162 22 -30 3 -71 7 -90 9 -19
3 -62 7 -95 10 -33 3 -80 7 -105 10 -69 7 -167 16 -245 20 -38 2 -70 5 -70 6
0 0 -25 2 -55 3 -30 1 -118 6 -195 11 -77 5 -174 9 -215 10 -41 1 -77 3 -80 5
-3 1 -47 2 -98 1 -50 0 -92 2 -92 5 0 2 11 26 24 52 14 26 81 162 149 302 132
270 138 291 79 290 -21 -1 -36 -13 -65 -54 -21 -30 -45 -62 -53 -73 -8 -10
-66 -88 -129 -173 -64 -85 -124 -166 -134 -180 -11 -14 -51 -68 -90 -120 -39
-52 -74 -99 -78 -105 -5 -5 -33 -44 -63 -85 -30 -41 -57 -77 -60 -80 -4 -3
-36 -47 -73 -98 -55 -78 -65 -97 -57 -113 6 -10 14 -20 18 -20 4 -1 218 -3
477 -5 498 -3 659 -8 860 -28 28 -3 73 -7 100 -10 28 -3 67 -8 87 -11 21 -3
54 -7 73 -10 78 -11 114 -17 200 -32 50 -8 104 -17 120 -20 17 -2 58 -11 93
-19 34 -7 77 -16 95 -19 17 -3 104 -24 192 -47 88 -22 172 -43 188 -45 15 -3
27 -8 27 -12 0 -4 8 -7 18 -8 39 -2 78 -16 155 -53 85 -40 196 -91 282 -130
28 -13 93 -43 145 -67 52 -25 95 -43 95 -42 0 2 18 -7 40 -19 47 -25 216 -104
230 -108 6 -1 60 -25 120 -54 100 -47 288 -133 325 -149 8 -3 113 -6 233 -5
l217 2 1 -27 c0 -14 2 -33 4 -41 1 -8 5 -31 8 -50 11 -63 48 -174 84 -247 34
-68 38 -73 68 -73 20 0 33 5 32 12 -2 55 6 56 101 20 40 -16 52 -17 52 -7 0 8
-4 17 -10 20 -31 19 -121 220 -135 300 -4 22 -9 52 -11 66 l-5 26 143 0 c79 0
154 5 168 11 32 13 140 62 258 118 51 24 95 44 96 44 5 0 126 56 301 139 66
32 122 58 125 59 7 1 128 56 220 99 41 20 102 48 135 63 33 15 85 39 116 53
31 15 61 27 67 27 6 0 12 5 14 10 2 6 12 12 23 15 11 2 63 16 115 30 80 22
223 56 293 70 10 2 27 7 37 10 10 3 31 8 46 10 16 2 40 7 54 9 14 3 36 8 50
11 14 3 42 8 63 11 47 7 72 12 72 14 0 1 14 3 30 5 17 2 48 6 70 9 22 2 56 7
75 11 99 16 148 22 355 40 189 16 988 25 1231 13 90 -5 134 6 134 32 0 17 -46
85 -87 128 -10 10 -54 63 -98 117 -44 54 -85 103 -90 109 -6 6 -30 36 -55 66
-25 30 -47 57 -50 60 -3 3 -23 28 -45 55 -21 28 -44 55 -50 60 -5 6 -30 35
-55 65 -25 30 -47 57 -50 60 -3 3 -25 30 -50 60 -25 30 -47 57 -50 60 -3 3
-25 30 -50 60 -24 30 -51 62 -60 71 -8 8 -31 36 -50 62 -26 35 -42 46 -62 47
-63 0 -58 -18 102 -338 83 -165 150 -302 150 -305 0 -3 -44 -6 -97 -7 -208 -3
-559 -22 -838 -45 -33 -3 -89 -7 -125 -10 -99 -9 -192 -19 -280 -30 -19 -3
-55 -7 -80 -10 -25 -3 -61 -7 -80 -10 -19 -3 -51 -7 -70 -10 -79 -11 -97 -14
-134 -20 -21 -4 -48 -8 -59 -11 -24 -4 -92 -15 -122 -20 -11 -1 -20 -3 -20 -4
0 -1 -9 -3 -20 -5 -11 -1 -33 -5 -50 -9 -16 -3 -42 -8 -57 -11 -15 -3 -39 -10
-53 -15 -14 -5 -25 -7 -25 -5 0 2 -11 0 -25 -5 -14 -5 -36 -12 -48 -14 -12 -2
-51 -12 -87 -21 -36 -8 -73 -18 -83 -20 -10 -2 -27 -7 -37 -10 -10 -3 -27 -8
-37 -10 -10 -2 -47 -13 -82 -24 -35 -11 -60 -17 -55 -12 24 21 231 145 281
167 157 72 480 168 668 199 17 2 41 7 55 10 14 2 39 7 55 11 17 3 46 7 65 9
19 2 37 5 40 6 3 1 10 2 15 3 6 1 28 5 50 9 22 3 60 9 85 12 25 3 61 8 80 11
19 2 51 6 70 8 19 3 62 7 95 11 33 4 78 8 100 10 22 2 72 6 110 9 77 7 213 15
317 20 75 3 102 18 93 50 -8 28 -93 252 -112 295 -8 18 -16 39 -18 45 -1 6 -7
22 -12 36 -6 14 -26 66 -45 115 -19 50 -39 99 -43 110 -5 11 -9 22 -10 25 -1
3 -6 16 -12 30 -6 14 -29 72 -51 130 -23 58 -54 139 -70 179 l-29 75 -231 116
c-223 112 -266 127 -283 98 -8 -13 -6 -27 15 -83 41 -113 98 -271 100 -280 1
-8 28 -80 63 -175 3 -8 7 -19 9 -25 1 -5 14 -41 29 -80 55 -147 67 -187 59
-195 -5 -4 -63 -11 -129 -15 -66 -4 -137 -8 -157 -9 -37 -3 -38 -2 -32 28 15
79 34 411 25 431 -3 5 -6 43 -7 85 -1 41 -5 95 -8 120 -20 153 -35 240 -43
260 -3 8 -7 24 -8 35 -4 42 -16 66 -28 57 -12 -10 -45 -16 -59 -12 -5 1 -11 3
-15 4 -20 4 -93 43 -143 75 -82 53 -91 59 -135 82 -63 35 -91 40 -112 21 -46
-42 -10 -81 122 -132 96 -37 197 -94 210 -119 8 -16 12 -31 9 -33 -2 -3 -6
-15 -9 -27 -7 -40 -69 -126 -115 -163 -41 -32 -51 -36 -100 -33 -106 4 -253
64 -292 118 -31 42 -48 76 -48 93 0 8 -5 14 -10 14 -6 0 -10 6 -8 13 1 6 -8
34 -20 61 -12 27 -22 51 -22 53 0 2 -12 20 -26 39 -31 40 -65 45 -87 10 -12
-18 -17 -61 -7 -61 1 0 4 -13 6 -30 6 -33 64 -145 76 -145 5 0 8 -5 8 -10 0
-15 75 -115 113 -152 28 -27 61 -46 92 -54 17 -4 79 -15 105 -19 127 -18 180
-45 180 -92 0 -44 -46 -99 -160 -193 -91 -74 -151 -133 -165 -165 -17 -37 -24
-92 -24 -211 l-1 -92 -87 -26 c-75 -23 -126 -41 -238 -82 -11 -4 -22 -8 -25
-9 -11 -4 -66 -26 -85 -34 -11 -5 -36 -16 -57 -25 -20 -9 -39 -16 -42 -16 -3
0 -47 -20 -97 -45 -50 -25 -95 -45 -99 -45 -11 0 -32 138 -35 227 -2 43 -4 78
-4 78 -1 0 -4 56 -7 125 -6 124 -9 170 -14 180 -1 3 -2 8 -1 12 0 4 -8 37 -20
73 -24 80 -65 124 -134 145 -78 23 -106 20 -227 -22 -113 -39 -188 -53 -188
-37 0 5 -7 9 -16 9 -38 0 -224 171 -224 206 0 7 -5 14 -11 16 -14 5 -19 94 -7
133 5 16 11 35 12 40 8 27 37 89 133 280 31 61 83 141 114 177 31 35 128 82
220 107 141 39 174 34 289 -36 76 -46 204 -108 240 -116 31 -7 42 0 58 36 11
27 14 27 74 23 35 -2 101 -13 146 -24 106 -25 147 -17 160 31 10 36 -3 107
-21 119 -14 10 -98 8 -112 -2 -10 -8 -81 -24 -147 -35 -61 -10 -129 28 -237
132 -25 24 -48 43 -52 43 -4 0 -14 6 -21 13 -24 23 -68 37 -117 37 -46 0 -49
-2 -115 -75 -37 -41 -72 -73 -76 -70 -5 3 -11 1 -15 -5 -7 -11 -78 -44 -118
-54 -53 -13 -124 46 -120 100 3 34 25 89 48 119 16 20 16 20 55 -3 44 -25 80
-29 80 -9 0 7 -14 29 -30 47 -17 19 -29 41 -28 49 2 9 33 27 69 41 68 26 97
43 139 79 101 88 83 83 287 80 67 -1 74 1 97 28 47 52 56 60 108 88 30 17 65
28 85 27 35 -1 39 3 24 27 -7 11 -31 15 -93 15 -90 -1 -109 -8 -176 -69 -19
-16 -38 -30 -42 -30 -5 0 -12 -3 -16 -7 -12 -12 -50 -9 -101 8 -54 18 -116 61
-108 74 3 5 1 11 -4 15 -19 11 9 84 32 86 7 0 23 3 37 5 14 3 34 6 45 7 34 3
61 30 80 80 26 68 53 80 190 84 93 2 122 -1 188 -21 42 -14 77 -22 77 -19 0 3
6 1 13 -4 13 -11 135 -42 181 -47 58 -7 39 22 -74 114 -24 19 -49 40 -55 47
-37 36 -223 161 -340 229 -88 50 -295 147 -295 138 0 -3 -12 2 -27 10 -34 18
-187 69 -263 86 -30 7 -62 15 -70 18 -20 7 -29 9 -75 16 -22 4 -47 8 -55 11
-14 4 -47 9 -145 22 -64 9 -525 11 -575 3z m767 -315 c26 -8 36 -41 21 -68
-11 -22 -54 -67 -63 -67 -3 0 -14 -9 -25 -20 -11 -11 -27 -20 -35 -20 -8 0
-15 -4 -15 -9 0 -9 -48 -26 -63 -23 -4 1 -22 4 -40 6 -18 3 -32 5 -32 6 0 9
-50 4 -63 -7 -16 -12 -15 -14 8 -32 13 -11 27 -19 30 -19 10 2 66 -15 92 -28
36 -19 33 -50 -7 -65 -39 -15 -52 -17 -160 -23 -49 -3 -92 -6 -95 -7 -13 -4
-27 -6 -48 -7 -23 -2 -105 -78 -151 -140 -74 -100 -212 -104 -206 -5 3 49 13
112 24 149 4 16 9 57 10 90 3 74 -14 98 -63 89 -95 -17 -116 -17 -122 -1 -16
42 85 114 216 154 91 27 116 24 155 -22 28 -34 36 -38 81 -39 66 -1 128 10
132 23 2 5 7 8 12 5 4 -3 27 2 51 11 24 8 51 17 59 19 8 2 35 10 60 19 25 9
55 19 67 22 12 2 32 8 44 12 24 9 93 8 126 -3z m-1655 -2213 c4 -2 16 -5 25
-8 10 -3 55 -23 100 -45 82 -40 83 -41 255 -230 14 -16 31 -29 37 -29 6 0 11
-5 11 -11 0 -11 92 -56 130 -63 14 -2 25 -5 25 -6 0 -1 7 -3 15 -5 60 -12 214
-53 245 -65 109 -41 153 -98 141 -182 -11 -77 -17 -98 -45 -163 -5 -11 -17
-38 -27 -60 -17 -39 -62 -115 -75 -125 -3 -3 -11 -15 -18 -27 -18 -35 -72 -71
-116 -77 -37 -6 -49 0 -160 69 -66 41 -125 75 -132 75 -6 0 -13 4 -15 9 -9 25
-560 295 -643 316 -42 10 -87 39 -96 63 -13 31 -18 130 -8 152 4 8 11 26 17
40 6 14 24 54 40 90 17 36 40 88 52 115 69 156 130 198 242 167z"/>
</g>
</svg>
